<svg width="468" height="206" viewBox="0 0 468 206" fill="none" xmlns="http://www.w3.org/2000/svg">
<rect width="468" height="204" rx="12" fill="white"/>
<path d="M21.88 51V37H24.48V51H21.88ZM34.0867 40.2C34.9401 40.2 35.7001 40.3667 36.3667 40.7C37.0467 41.0333 37.5801 41.5467 37.9667 42.24C38.3534 42.92 38.5467 43.8 38.5467 44.88V51H36.0467V45.2C36.0467 44.2533 35.8201 43.5467 35.3667 43.08C34.9267 42.6133 34.3067 42.38 33.5067 42.38C32.9201 42.38 32.4001 42.5 31.9467 42.74C31.4934 42.98 31.1401 43.34 30.8867 43.82C30.6467 44.2867 30.5267 44.88 30.5267 45.6V51H28.0267V40.32H30.4067V43.2L29.9867 42.32C30.3601 41.64 30.9001 41.12 31.6067 40.76C32.3267 40.3867 33.1534 40.2 34.0867 40.2ZM46.6377 51.14C45.5177 51.14 44.5177 50.9067 43.6377 50.44C42.771 49.96 42.091 49.3067 41.5977 48.48C41.1043 47.6533 40.8577 46.7133 40.8577 45.66C40.8577 44.5933 41.1043 43.6533 41.5977 42.84C42.091 42.0133 42.771 41.3667 43.6377 40.9C44.5177 40.4333 45.5177 40.2 46.6377 40.2C47.6777 40.2 48.591 40.4133 49.3777 40.84C50.1777 41.2533 50.7843 41.8667 51.1977 42.68L49.2777 43.8C48.9577 43.2933 48.5643 42.92 48.0977 42.68C47.6443 42.44 47.151 42.32 46.6177 42.32C46.0043 42.32 45.451 42.4533 44.9577 42.72C44.4643 42.9867 44.0777 43.3733 43.7977 43.88C43.5177 44.3733 43.3777 44.9667 43.3777 45.66C43.3777 46.3533 43.5177 46.9533 43.7977 47.46C44.0777 47.9533 44.4643 48.3333 44.9577 48.6C45.451 48.8667 46.0043 49 46.6177 49C47.151 49 47.6443 48.88 48.0977 48.64C48.5643 48.4 48.9577 48.0267 49.2777 47.52L51.1977 48.64C50.7843 49.44 50.1777 50.06 49.3777 50.5C48.591 50.9267 47.6777 51.14 46.6377 51.14ZM58.0025 51.14C56.9092 51.14 55.9358 50.9067 55.0825 50.44C54.2292 49.96 53.5558 49.3067 53.0625 48.48C52.5692 47.6533 52.3225 46.7133 52.3225 45.66C52.3225 44.5933 52.5692 43.6533 53.0625 42.84C53.5558 42.0133 54.2292 41.3667 55.0825 40.9C55.9358 40.4333 56.9092 40.2 58.0025 40.2C59.1092 40.2 60.0892 40.4333 60.9425 40.9C61.8092 41.3667 62.4825 42.0067 62.9625 42.82C63.4558 43.6333 63.7025 44.58 63.7025 45.66C63.7025 46.7133 63.4558 47.6533 62.9625 48.48C62.4825 49.3067 61.8092 49.96 60.9425 50.44C60.0892 50.9067 59.1092 51.14 58.0025 51.14ZM58.0025 49C58.6158 49 59.1625 48.8667 59.6425 48.6C60.1225 48.3333 60.4958 47.9467 60.7625 47.44C61.0425 46.9333 61.1825 46.34 61.1825 45.66C61.1825 44.9667 61.0425 44.3733 60.7625 43.88C60.4958 43.3733 60.1225 42.9867 59.6425 42.72C59.1625 42.4533 58.6225 42.32 58.0225 42.32C57.4092 42.32 56.8625 42.4533 56.3825 42.72C55.9158 42.9867 55.5425 43.3733 55.2625 43.88C54.9825 44.3733 54.8425 44.9667 54.8425 45.66C54.8425 46.34 54.9825 46.9333 55.2625 47.44C55.5425 47.9467 55.9158 48.3333 56.3825 48.6C56.8625 48.8667 57.4025 49 58.0025 49ZM79.5731 40.2C80.4265 40.2 81.1798 40.3667 81.8331 40.7C82.4998 41.0333 83.0198 41.5467 83.3931 42.24C83.7665 42.92 83.9531 43.8 83.9531 44.88V51H81.4531V45.2C81.4531 44.2533 81.2465 43.5467 80.8331 43.08C80.4198 42.6133 79.8265 42.38 79.0531 42.38C78.5065 42.38 78.0198 42.5 77.5931 42.74C77.1798 42.98 76.8531 43.3333 76.6131 43.8C76.3865 44.2667 76.2731 44.86 76.2731 45.58V51H73.7731V45.2C73.7731 44.2533 73.5665 43.5467 73.1531 43.08C72.7398 42.6133 72.1465 42.38 71.3731 42.38C70.8265 42.38 70.3398 42.5 69.9131 42.74C69.4998 42.98 69.1731 43.3333 68.9331 43.8C68.7065 44.2667 68.5931 44.86 68.5931 45.58V51H66.0931V40.32H68.4731V43.16L68.0531 42.32C68.4131 41.6267 68.9331 41.1 69.6131 40.74C70.3065 40.38 71.0931 40.2 71.9731 40.2C72.9731 40.2 73.8398 40.4467 74.5731 40.94C75.3198 41.4333 75.8131 42.18 76.0531 43.18L75.0731 42.84C75.4198 42.04 75.9931 41.4 76.7931 40.92C77.5931 40.44 78.5198 40.2 79.5731 40.2ZM92.1873 51.14C91.0007 51.14 89.9607 50.9067 89.0673 50.44C88.1873 49.96 87.5007 49.3067 87.0073 48.48C86.5273 47.6533 86.2873 46.7133 86.2873 45.66C86.2873 44.5933 86.5207 43.6533 86.9873 42.84C87.4673 42.0133 88.1207 41.3667 88.9473 40.9C89.7873 40.4333 90.7407 40.2 91.8073 40.2C92.8473 40.2 93.774 40.4267 94.5873 40.88C95.4007 41.3333 96.0407 41.9733 96.5073 42.8C96.974 43.6267 97.2073 44.6 97.2073 45.72C97.2073 45.8267 97.2007 45.9467 97.1873 46.08C97.1873 46.2133 97.1807 46.34 97.1673 46.46H88.2673V44.8H95.8473L94.8673 45.32C94.8807 44.7067 94.754 44.1667 94.4873 43.7C94.2207 43.2333 93.854 42.8667 93.3873 42.6C92.934 42.3333 92.4073 42.2 91.8073 42.2C91.194 42.2 90.654 42.3333 90.1873 42.6C89.734 42.8667 89.374 43.24 89.1073 43.72C88.854 44.1867 88.7273 44.74 88.7273 45.38V45.78C88.7273 46.42 88.874 46.9867 89.1673 47.48C89.4607 47.9733 89.874 48.3533 90.4073 48.62C90.9407 48.8867 91.554 49.02 92.2473 49.02C92.8473 49.02 93.3873 48.9267 93.8673 48.74C94.3473 48.5533 94.774 48.26 95.1473 47.86L96.4873 49.4C96.0073 49.96 95.4007 50.3933 94.6673 50.7C93.9473 50.9933 93.1207 51.14 92.1873 51.14Z" fill="#064061"/>
<rect x="306.5" y="20.5" width="141" height="47" rx="11.5" fill="white"/>
<rect x="306.5" y="20.5" width="141" height="47" rx="11.5" stroke="#F1F1F1"/>
<path d="M323.68 50V38.8H324.992L330.016 47.264H329.312L334.272 38.8H335.584L335.6 50H334.064L334.048 41.216H334.416L330 48.64H329.264L324.816 41.216H325.216V50H323.68ZM342.369 50.096C341.516 50.096 340.759 49.9093 340.097 49.536C339.436 49.1627 338.913 48.6507 338.529 48C338.145 47.3387 337.953 46.592 337.953 45.76C337.953 44.9173 338.145 44.1707 338.529 43.52C338.913 42.8693 339.436 42.3627 340.097 42C340.759 41.6267 341.516 41.44 342.369 41.44C343.212 41.44 343.964 41.6267 344.625 42C345.297 42.3627 345.82 42.8693 346.193 43.52C346.577 44.16 346.769 44.9067 346.769 45.76C346.769 46.6027 346.577 47.3493 346.193 48C345.82 48.6507 345.297 49.1627 344.625 49.536C343.964 49.9093 343.212 50.096 342.369 50.096ZM342.369 48.752C342.913 48.752 343.399 48.6293 343.825 48.384C344.263 48.1387 344.604 47.792 344.849 47.344C345.095 46.8853 345.217 46.3573 345.217 45.76C345.217 45.152 345.095 44.6293 344.849 44.192C344.604 43.744 344.263 43.3973 343.825 43.152C343.399 42.9067 342.913 42.784 342.369 42.784C341.825 42.784 341.34 42.9067 340.913 43.152C340.487 43.3973 340.145 43.744 339.889 44.192C339.633 44.6293 339.505 45.152 339.505 45.76C339.505 46.3573 339.633 46.8853 339.889 47.344C340.145 47.792 340.487 48.1387 340.913 48.384C341.34 48.6293 341.825 48.752 342.369 48.752ZM353.422 41.44C354.115 41.44 354.723 41.5733 355.246 41.84C355.779 42.1067 356.195 42.512 356.494 43.056C356.792 43.6 356.942 44.288 356.942 45.12V50H355.406V45.296C355.406 44.4747 355.203 43.856 354.798 43.44C354.403 43.024 353.843 42.816 353.118 42.816C352.574 42.816 352.099 42.9227 351.694 43.136C351.288 43.3493 350.974 43.664 350.75 44.08C350.536 44.496 350.43 45.0133 350.43 45.632V50H348.894V41.52H350.366V43.808L350.126 43.2C350.403 42.6453 350.83 42.2133 351.406 41.904C351.982 41.5947 352.654 41.44 353.422 41.44ZM362.696 50.096C361.843 50.096 361.181 49.8667 360.712 49.408C360.243 48.9493 360.008 48.2933 360.008 47.44V39.664H361.544V47.376C361.544 47.8347 361.656 48.1867 361.88 48.432C362.115 48.6773 362.445 48.8 362.872 48.8C363.352 48.8 363.752 48.6667 364.072 48.4L364.552 49.504C364.317 49.7067 364.035 49.856 363.704 49.952C363.384 50.048 363.048 50.096 362.696 50.096ZM358.568 42.784V41.52H363.976V42.784H358.568ZM370.937 41.44C371.63 41.44 372.238 41.5733 372.761 41.84C373.294 42.1067 373.71 42.512 374.009 43.056C374.308 43.6 374.457 44.288 374.457 45.12V50H372.921V45.296C372.921 44.4747 372.718 43.856 372.313 43.44C371.918 43.024 371.358 42.816 370.633 42.816C370.089 42.816 369.614 42.9227 369.209 43.136C368.804 43.3493 368.489 43.664 368.265 44.08C368.052 44.496 367.945 45.0133 367.945 45.632V50H366.409V38.128H367.945V43.808L367.641 43.2C367.918 42.6453 368.345 42.2133 368.921 41.904C369.497 41.5947 370.169 41.44 370.937 41.44ZM377.3 50V38.128H378.836V50H377.3ZM382.137 53.2C381.731 53.2 381.337 53.1307 380.953 52.992C380.569 52.864 380.238 52.672 379.96 52.416L380.617 51.264C380.83 51.4667 381.065 51.6213 381.321 51.728C381.577 51.8347 381.849 51.888 382.137 51.888C382.51 51.888 382.819 51.792 383.065 51.6C383.31 51.408 383.539 51.0667 383.753 50.576L384.281 49.408L384.441 49.216L387.769 41.52H389.273L385.161 50.848C384.915 51.4453 384.638 51.9147 384.329 52.256C384.03 52.5973 383.699 52.8373 383.337 52.976C382.974 53.1253 382.574 53.2 382.137 53.2ZM384.153 50.272L380.28 41.52H381.881L385.177 49.072L384.153 50.272Z" fill="#064061"/>
<path d="M427.92 40.95L421.4 47.47C420.63 48.24 419.37 48.24 418.6 47.47L412.08 40.95" stroke="#064061" stroke-width="1.5" stroke-miterlimit="10" stroke-linecap="round" stroke-linejoin="round"/>
<circle cx="80" cy="144" r="50" stroke="#E2DECD" stroke-width="21"/>
<path d="M130 144C130 133.04 126.399 122.383 119.75 113.67C113.101 104.956 103.774 98.6687 93.2026 95.7746C82.6313 92.8805 71.4019 93.5401 61.2422 97.6519C51.0824 101.764 42.5552 109.1 36.9724 118.532C31.3897 127.964 29.0607 138.969 30.3439 149.854C31.6271 160.739 36.4513 170.9 44.0743 178.776C51.6974 186.651 61.6968 191.803 72.5342 193.439C83.3716 195.076 94.4466 193.106 104.055 187.833" stroke="#064061" stroke-width="21"/>
<path d="M130 144C130 135.567 127.867 127.271 123.799 119.883C119.732 112.496 113.862 106.258 106.736 101.748C99.6095 97.2391 91.4585 94.6055 83.041 94.0926C74.6235 93.5797 66.213 95.2041 58.592 98.8149C50.971 102.426 44.387 107.905 39.4527 114.744C34.5183 121.583 31.3938 129.559 30.3699 137.929C29.346 146.3 30.456 154.794 33.5965 162.62C36.737 170.447 41.8061 177.352 48.3321 182.693" stroke="#4EB7F2" stroke-width="21"/>
<path d="M130 144C130 133.829 126.898 123.9 121.108 115.537C115.318 107.175 107.116 100.777 97.5953 97.1981C88.0747 93.6189 77.689 93.0284 67.8241 95.5053C57.9592 97.9822 49.0843 103.409 42.3837 111.061" stroke="#208CC8" stroke-width="21"/>
<circle cx="186" cy="96" r="6" fill="#208CC8"/>
<path d="M205.824 102V90.8H210.384C211.579 90.8 212.624 91.04 213.52 91.52C214.427 91.9893 215.131 92.6453 215.632 93.488C216.134 94.3307 216.384 95.3013 216.384 96.4C216.384 97.4987 216.134 98.4693 215.632 99.312C215.131 100.155 214.427 100.816 213.52 101.296C212.624 101.765 211.579 102 210.384 102H205.824ZM207.008 100.976H210.32C211.312 100.976 212.171 100.784 212.896 100.4C213.632 100.005 214.203 99.4667 214.608 98.784C215.014 98.0907 215.216 97.296 215.216 96.4C215.216 95.4933 215.014 94.6987 214.608 94.016C214.203 93.3333 213.632 92.8 212.896 92.416C212.171 92.0213 211.312 91.824 210.32 91.824H207.008V100.976ZM222.371 102.08C221.496 102.08 220.728 101.899 220.067 101.536C219.406 101.163 218.888 100.656 218.515 100.016C218.142 99.3653 217.955 98.624 217.955 97.792C217.955 96.96 218.131 96.224 218.483 95.584C218.846 94.944 219.336 94.4427 219.955 94.08C220.584 93.7067 221.288 93.52 222.067 93.52C222.856 93.52 223.555 93.7013 224.163 94.064C224.782 94.416 225.267 94.9173 225.619 95.568C225.971 96.208 226.147 96.9493 226.147 97.792C226.147 97.8453 226.142 97.904 226.131 97.968C226.131 98.0213 226.131 98.08 226.131 98.144H218.819V97.296H225.523L225.075 97.632C225.075 97.024 224.942 96.4853 224.675 96.016C224.419 95.536 224.067 95.1627 223.619 94.896C223.171 94.6293 222.654 94.496 222.067 94.496C221.491 94.496 220.974 94.6293 220.515 94.896C220.056 95.1627 219.699 95.536 219.443 96.016C219.187 96.496 219.059 97.0453 219.059 97.664V97.84C219.059 98.48 219.198 99.0453 219.475 99.536C219.763 100.016 220.158 100.395 220.659 100.672C221.171 100.939 221.752 101.072 222.403 101.072C222.915 101.072 223.39 100.981 223.827 100.8C224.275 100.619 224.659 100.341 224.979 99.968L225.619 100.704C225.246 101.152 224.776 101.493 224.211 101.728C223.656 101.963 223.043 102.08 222.371 102.08ZM230.715 102.08C230.022 102.08 229.366 101.984 228.747 101.792C228.129 101.589 227.643 101.339 227.291 101.04L227.803 100.144C228.145 100.4 228.582 100.624 229.115 100.816C229.649 100.997 230.209 101.088 230.795 101.088C231.595 101.088 232.171 100.965 232.523 100.72C232.875 100.464 233.051 100.128 233.051 99.712C233.051 99.4027 232.95 99.1627 232.747 98.992C232.555 98.8107 232.299 98.6773 231.979 98.592C231.659 98.496 231.302 98.416 230.907 98.352C230.513 98.288 230.118 98.2133 229.723 98.128C229.339 98.0427 228.987 97.92 228.667 97.76C228.347 97.5893 228.086 97.36 227.883 97.072C227.691 96.784 227.595 96.4 227.595 95.92C227.595 95.4613 227.723 95.0507 227.979 94.688C228.235 94.3253 228.609 94.0427 229.099 93.84C229.601 93.6267 230.209 93.52 230.923 93.52C231.467 93.52 232.011 93.5947 232.555 93.744C233.099 93.8827 233.547 94.0693 233.899 94.304L233.403 95.216C233.03 94.96 232.63 94.7787 232.203 94.672C231.777 94.5547 231.35 94.496 230.923 94.496C230.166 94.496 229.606 94.6293 229.243 94.896C228.891 95.152 228.715 95.4827 228.715 95.888C228.715 96.208 228.811 96.4587 229.003 96.64C229.206 96.8213 229.467 96.9653 229.787 97.072C230.118 97.168 230.475 97.248 230.859 97.312C231.254 97.376 231.643 97.456 232.027 97.552C232.422 97.6373 232.779 97.76 233.099 97.92C233.43 98.0693 233.691 98.288 233.883 98.576C234.086 98.8533 234.187 99.2213 234.187 99.68C234.187 100.171 234.049 100.597 233.771 100.96C233.505 101.312 233.11 101.589 232.587 101.792C232.075 101.984 231.451 102.08 230.715 102.08ZM236.272 102V93.6H237.408V102H236.272ZM236.848 91.744C236.613 91.744 236.416 91.664 236.256 91.504C236.096 91.344 236.016 91.152 236.016 90.928C236.016 90.704 236.096 90.5173 236.256 90.368C236.416 90.208 236.613 90.128 236.848 90.128C237.082 90.128 237.28 90.2027 237.44 90.352C237.6 90.5013 237.68 90.688 237.68 90.912C237.68 91.1467 237.6 91.344 237.44 91.504C237.29 91.664 237.093 91.744 236.848 91.744ZM244.153 105.184C243.385 105.184 242.649 105.072 241.945 104.848C241.241 104.624 240.67 104.304 240.233 103.888L240.809 103.024C241.203 103.376 241.689 103.653 242.265 103.856C242.851 104.069 243.47 104.176 244.121 104.176C245.187 104.176 245.971 103.925 246.473 103.424C246.974 102.933 247.225 102.165 247.225 101.12V99.024L247.385 97.584L247.273 96.144V93.6H248.361V100.976C248.361 102.427 248.003 103.488 247.289 104.16C246.585 104.843 245.539 105.184 244.153 105.184ZM243.945 101.68C243.145 101.68 242.425 101.509 241.785 101.168C241.145 100.816 240.638 100.331 240.265 99.712C239.902 99.0933 239.721 98.384 239.721 97.584C239.721 96.784 239.902 96.08 240.265 95.472C240.638 94.8533 241.145 94.3733 241.785 94.032C242.425 93.6907 243.145 93.52 243.945 93.52C244.691 93.52 245.363 93.6747 245.961 93.984C246.558 94.2933 247.033 94.752 247.385 95.36C247.737 95.968 247.913 96.7093 247.913 97.584C247.913 98.4587 247.737 99.2 247.385 99.808C247.033 100.416 246.558 100.88 245.961 101.2C245.363 101.52 244.691 101.68 243.945 101.68ZM244.057 100.672C244.675 100.672 245.225 100.544 245.705 100.288C246.185 100.021 246.563 99.6587 246.841 99.2C247.118 98.7307 247.257 98.192 247.257 97.584C247.257 96.976 247.118 96.4427 246.841 95.984C246.563 95.5253 246.185 95.168 245.705 94.912C245.225 94.6453 244.675 94.512 244.057 94.512C243.449 94.512 242.899 94.6453 242.409 94.912C241.929 95.168 241.55 95.5253 241.273 95.984C241.006 96.4427 240.873 96.976 240.873 97.584C240.873 98.192 241.006 98.7307 241.273 99.2C241.55 99.6587 241.929 100.021 242.409 100.288C242.899 100.544 243.449 100.672 244.057 100.672ZM255.81 93.52C256.492 93.52 257.09 93.6533 257.602 93.92C258.124 94.176 258.53 94.5707 258.818 95.104C259.116 95.6373 259.266 96.3093 259.266 97.12V102H258.13V97.232C258.13 96.3467 257.906 95.68 257.458 95.232C257.02 94.7733 256.402 94.544 255.602 94.544C255.004 94.544 254.482 94.6667 254.034 94.912C253.596 95.1467 253.255 95.4933 253.01 95.952C252.775 96.4 252.658 96.944 252.658 97.584V102H251.522V93.6H252.61V95.904L252.434 95.472C252.7 94.864 253.127 94.3893 253.714 94.048C254.3 93.696 254.999 93.52 255.81 93.52ZM268.778 102.08C268.084 102.08 267.428 101.984 266.81 101.792C266.191 101.589 265.706 101.339 265.354 101.04L265.866 100.144C266.207 100.4 266.644 100.624 267.178 100.816C267.711 100.997 268.271 101.088 268.858 101.088C269.658 101.088 270.234 100.965 270.586 100.72C270.938 100.464 271.114 100.128 271.114 99.712C271.114 99.4027 271.012 99.1627 270.81 98.992C270.618 98.8107 270.362 98.6773 270.042 98.592C269.722 98.496 269.364 98.416 268.97 98.352C268.575 98.288 268.18 98.2133 267.786 98.128C267.402 98.0427 267.05 97.92 266.73 97.76C266.41 97.5893 266.148 97.36 265.946 97.072C265.754 96.784 265.658 96.4 265.658 95.92C265.658 95.4613 265.786 95.0507 266.042 94.688C266.298 94.3253 266.671 94.0427 267.162 93.84C267.663 93.6267 268.271 93.52 268.986 93.52C269.53 93.52 270.074 93.5947 270.618 93.744C271.162 93.8827 271.61 94.0693 271.962 94.304L271.466 95.216C271.092 94.96 270.692 94.7787 270.266 94.672C269.839 94.5547 269.412 94.496 268.986 94.496C268.228 94.496 267.668 94.6293 267.306 94.896C266.954 95.152 266.778 95.4827 266.778 95.888C266.778 96.208 266.874 96.4587 267.066 96.64C267.268 96.8213 267.53 96.9653 267.85 97.072C268.18 97.168 268.538 97.248 268.922 97.312C269.316 97.376 269.706 97.456 270.09 97.552C270.484 97.6373 270.842 97.76 271.162 97.92C271.492 98.0693 271.754 98.288 271.946 98.576C272.148 98.8533 272.25 99.2213 272.25 99.68C272.25 100.171 272.111 100.597 271.834 100.96C271.567 101.312 271.172 101.589 270.65 101.792C270.138 101.984 269.514 102.08 268.778 102.08ZM277.902 102.08C277.028 102.08 276.26 101.899 275.598 101.536C274.937 101.163 274.42 100.656 274.046 100.016C273.673 99.3653 273.486 98.624 273.486 97.792C273.486 96.96 273.662 96.224 274.014 95.584C274.377 94.944 274.868 94.4427 275.486 94.08C276.116 93.7067 276.82 93.52 277.598 93.52C278.388 93.52 279.086 93.7013 279.694 94.064C280.313 94.416 280.798 94.9173 281.15 95.568C281.502 96.208 281.678 96.9493 281.678 97.792C281.678 97.8453 281.673 97.904 281.662 97.968C281.662 98.0213 281.662 98.08 281.662 98.144H274.35V97.296H281.054L280.606 97.632C280.606 97.024 280.473 96.4853 280.206 96.016C279.95 95.536 279.598 95.1627 279.15 94.896C278.702 94.6293 278.185 94.496 277.598 94.496C277.022 94.496 276.505 94.6293 276.046 94.896C275.588 95.1627 275.23 95.536 274.974 96.016C274.718 96.496 274.59 97.0453 274.59 97.664V97.84C274.59 98.48 274.729 99.0453 275.006 99.536C275.294 100.016 275.689 100.395 276.19 100.672C276.702 100.939 277.284 101.072 277.934 101.072C278.446 101.072 278.921 100.981 279.358 100.8C279.806 100.619 280.19 100.341 280.51 99.968L281.15 100.704C280.777 101.152 280.308 101.493 279.742 101.728C279.188 101.963 278.574 102.08 277.902 102.08ZM283.991 102V93.6H285.079V95.888L284.967 95.488C285.201 94.848 285.596 94.3627 286.151 94.032C286.705 93.6907 287.393 93.52 288.215 93.52V94.624C288.172 94.624 288.129 94.624 288.087 94.624C288.044 94.6133 288.001 94.608 287.959 94.608C287.073 94.608 286.38 94.88 285.879 95.424C285.377 95.9573 285.127 96.72 285.127 97.712V102H283.991ZM292.807 102L289.079 93.6H290.263L293.687 101.392H293.127L296.599 93.6H297.719L293.975 102H292.807ZM299.319 102V93.6H300.455V102H299.319ZM299.895 91.744C299.66 91.744 299.463 91.664 299.303 91.504C299.143 91.344 299.063 91.152 299.063 90.928C299.063 90.704 299.143 90.5173 299.303 90.368C299.463 90.208 299.66 90.128 299.895 90.128C300.129 90.128 300.327 90.2027 300.487 90.352C300.647 90.5013 300.727 90.688 300.727 90.912C300.727 91.1467 300.647 91.344 300.487 91.504C300.337 91.664 300.14 91.744 299.895 91.744ZM307.104 102.08C306.272 102.08 305.525 101.899 304.864 101.536C304.213 101.163 303.701 100.656 303.328 100.016C302.954 99.3653 302.768 98.624 302.768 97.792C302.768 96.9493 302.954 96.208 303.328 95.568C303.701 94.928 304.213 94.4267 304.864 94.064C305.525 93.7013 306.272 93.52 307.104 93.52C307.818 93.52 308.464 93.6587 309.04 93.936C309.616 94.2133 310.069 94.6293 310.4 95.184L309.552 95.76C309.264 95.3333 308.906 95.0187 308.48 94.816C308.053 94.6133 307.589 94.512 307.088 94.512C306.49 94.512 305.952 94.6507 305.472 94.928C304.992 95.1947 304.613 95.5733 304.336 96.064C304.058 96.5547 303.92 97.1307 303.92 97.792C303.92 98.4533 304.058 99.0293 304.336 99.52C304.613 100.011 304.992 100.395 305.472 100.672C305.952 100.939 306.49 101.072 307.088 101.072C307.589 101.072 308.053 100.971 308.48 100.768C308.906 100.565 309.264 100.256 309.552 99.84L310.4 100.416C310.069 100.96 309.616 101.376 309.04 101.664C308.464 101.941 307.818 102.08 307.104 102.08ZM316.059 102.08C315.184 102.08 314.416 101.899 313.755 101.536C313.093 101.163 312.576 100.656 312.203 100.016C311.829 99.3653 311.643 98.624 311.643 97.792C311.643 96.96 311.819 96.224 312.171 95.584C312.533 94.944 313.024 94.4427 313.643 94.08C314.272 93.7067 314.976 93.52 315.755 93.52C316.544 93.52 317.243 93.7013 317.851 94.064C318.469 94.416 318.955 94.9173 319.307 95.568C319.659 96.208 319.835 96.9493 319.835 97.792C319.835 97.8453 319.829 97.904 319.819 97.968C319.819 98.0213 319.819 98.08 319.819 98.144H312.507V97.296H319.211L318.763 97.632C318.763 97.024 318.629 96.4853 318.363 96.016C318.107 95.536 317.755 95.1627 317.307 94.896C316.859 94.6293 316.341 94.496 315.755 94.496C315.179 94.496 314.661 94.6293 314.203 94.896C313.744 95.1627 313.387 95.536 313.131 96.016C312.875 96.496 312.747 97.0453 312.747 97.664V97.84C312.747 98.48 312.885 99.0453 313.163 99.536C313.451 100.016 313.845 100.395 314.347 100.672C314.859 100.939 315.44 101.072 316.091 101.072C316.603 101.072 317.077 100.981 317.515 100.8C317.963 100.619 318.347 100.341 318.667 99.968L319.307 100.704C318.933 101.152 318.464 101.493 317.899 101.728C317.344 101.963 316.731 102.08 316.059 102.08Z" fill="#064061"/>
<path d="M413.608 99.248V98.128L419.336 90.8H421.064L415.384 98.128L414.568 97.872H423.512V99.248H413.608ZM419.832 102V99.248L419.88 97.872V95.44H421.384V102H419.832ZM429.047 102.128C428.172 102.128 427.388 101.904 426.695 101.456C426.012 101.008 425.468 100.357 425.063 99.504C424.668 98.6507 424.471 97.616 424.471 96.4C424.471 95.184 424.668 94.1493 425.063 93.296C425.468 92.4427 426.012 91.792 426.695 91.344C427.388 90.896 428.172 90.672 429.047 90.672C429.911 90.672 430.69 90.896 431.383 91.344C432.076 91.792 432.62 92.4427 433.015 93.296C433.41 94.1493 433.607 95.184 433.607 96.4C433.607 97.616 433.41 98.6507 433.015 99.504C432.62 100.357 432.076 101.008 431.383 101.456C430.69 101.904 429.911 102.128 429.047 102.128ZM429.047 100.704C429.634 100.704 430.146 100.544 430.583 100.224C431.031 99.904 431.378 99.424 431.623 98.784C431.879 98.144 432.007 97.3493 432.007 96.4C432.007 95.4507 431.879 94.656 431.623 94.016C431.378 93.376 431.031 92.896 430.583 92.576C430.146 92.256 429.634 92.096 429.047 92.096C428.46 92.096 427.943 92.256 427.495 92.576C427.047 92.896 426.695 93.376 426.439 94.016C426.194 94.656 426.071 95.4507 426.071 96.4C426.071 97.3493 426.194 98.144 426.439 98.784C426.695 99.424 427.047 99.904 427.495 100.224C427.943 100.544 428.46 100.704 429.047 100.704ZM436.679 102L444.327 90.8H445.559L437.911 102H436.679ZM437.575 96.816C437.063 96.816 436.61 96.688 436.215 96.432C435.82 96.176 435.511 95.8187 435.287 95.36C435.074 94.9013 434.967 94.368 434.967 93.76C434.967 93.152 435.074 92.6187 435.287 92.16C435.511 91.7013 435.82 91.344 436.215 91.088C436.61 90.832 437.063 90.704 437.575 90.704C438.098 90.704 438.551 90.832 438.935 91.088C439.33 91.344 439.634 91.7013 439.847 92.16C440.06 92.6187 440.167 93.152 440.167 93.76C440.167 94.368 440.06 94.9013 439.847 95.36C439.634 95.8187 439.33 96.176 438.935 96.432C438.551 96.688 438.098 96.816 437.575 96.816ZM437.575 95.904C438.066 95.904 438.45 95.7173 438.727 95.344C439.004 94.96 439.143 94.432 439.143 93.76C439.143 93.088 439.004 92.5653 438.727 92.192C438.45 91.808 438.066 91.616 437.575 91.616C437.095 91.616 436.711 91.808 436.423 92.192C436.146 92.5653 436.007 93.088 436.007 93.76C436.007 94.4213 436.146 94.944 436.423 95.328C436.711 95.712 437.095 95.904 437.575 95.904ZM444.663 102.096C444.151 102.096 443.698 101.968 443.303 101.712C442.908 101.456 442.604 101.099 442.391 100.64C442.178 100.181 442.071 99.648 442.071 99.04C442.071 98.432 442.178 97.8987 442.391 97.44C442.604 96.9813 442.908 96.624 443.303 96.368C443.698 96.112 444.151 95.984 444.663 95.984C445.186 95.984 445.639 96.112 446.023 96.368C446.418 96.624 446.722 96.9813 446.935 97.44C447.159 97.8987 447.271 98.432 447.271 99.04C447.271 99.648 447.159 100.181 446.935 100.64C446.722 101.099 446.418 101.456 446.023 101.712C445.639 101.968 445.186 102.096 444.663 102.096ZM444.663 101.184C445.143 101.184 445.522 100.997 445.799 100.624C446.087 100.24 446.231 99.712 446.231 99.04C446.231 98.3787 446.087 97.856 445.799 97.472C445.522 97.088 445.143 96.896 444.663 96.896C444.183 96.896 443.799 97.088 443.511 97.472C443.234 97.8453 443.095 98.368 443.095 99.04C443.095 99.712 443.234 100.24 443.511 100.624C443.799 100.997 444.183 101.184 444.663 101.184Z" fill="#208CC8"/>
<circle cx="186" cy="128" r="6" fill="#4EB7F2"/>
<path d="M205.824 134V122.8H210.384C211.579 122.8 212.624 123.04 213.52 123.52C214.427 123.989 215.131 124.645 215.632 125.488C216.134 126.331 216.384 127.301 216.384 128.4C216.384 129.499 216.134 130.469 215.632 131.312C215.131 132.155 214.427 132.816 213.52 133.296C212.624 133.765 211.579 134 210.384 134H205.824ZM207.008 132.976H210.32C211.312 132.976 212.171 132.784 212.896 132.4C213.632 132.005 214.203 131.467 214.608 130.784C215.014 130.091 215.216 129.296 215.216 128.4C215.216 127.493 215.014 126.699 214.608 126.016C214.203 125.333 213.632 124.8 212.896 124.416C212.171 124.021 211.312 123.824 210.32 123.824H207.008V132.976ZM222.371 134.08C221.496 134.08 220.728 133.899 220.067 133.536C219.406 133.163 218.888 132.656 218.515 132.016C218.142 131.365 217.955 130.624 217.955 129.792C217.955 128.96 218.131 128.224 218.483 127.584C218.846 126.944 219.336 126.443 219.955 126.08C220.584 125.707 221.288 125.52 222.067 125.52C222.856 125.52 223.555 125.701 224.163 126.064C224.782 126.416 225.267 126.917 225.619 127.568C225.971 128.208 226.147 128.949 226.147 129.792C226.147 129.845 226.142 129.904 226.131 129.968C226.131 130.021 226.131 130.08 226.131 130.144H218.819V129.296H225.523L225.075 129.632C225.075 129.024 224.942 128.485 224.675 128.016C224.419 127.536 224.067 127.163 223.619 126.896C223.171 126.629 222.654 126.496 222.067 126.496C221.491 126.496 220.974 126.629 220.515 126.896C220.056 127.163 219.699 127.536 219.443 128.016C219.187 128.496 219.059 129.045 219.059 129.664V129.84C219.059 130.48 219.198 131.045 219.475 131.536C219.763 132.016 220.158 132.395 220.659 132.672C221.171 132.939 221.752 133.072 222.403 133.072C222.915 133.072 223.39 132.981 223.827 132.8C224.275 132.619 224.659 132.341 224.979 131.968L225.619 132.704C225.246 133.152 224.776 133.493 224.211 133.728C223.656 133.963 223.043 134.08 222.371 134.08ZM230.715 134.08C230.022 134.08 229.366 133.984 228.747 133.792C228.129 133.589 227.643 133.339 227.291 133.04L227.803 132.144C228.145 132.4 228.582 132.624 229.115 132.816C229.649 132.997 230.209 133.088 230.795 133.088C231.595 133.088 232.171 132.965 232.523 132.72C232.875 132.464 233.051 132.128 233.051 131.712C233.051 131.403 232.95 131.163 232.747 130.992C232.555 130.811 232.299 130.677 231.979 130.592C231.659 130.496 231.302 130.416 230.907 130.352C230.513 130.288 230.118 130.213 229.723 130.128C229.339 130.043 228.987 129.92 228.667 129.76C228.347 129.589 228.086 129.36 227.883 129.072C227.691 128.784 227.595 128.4 227.595 127.92C227.595 127.461 227.723 127.051 227.979 126.688C228.235 126.325 228.609 126.043 229.099 125.84C229.601 125.627 230.209 125.52 230.923 125.52C231.467 125.52 232.011 125.595 232.555 125.744C233.099 125.883 233.547 126.069 233.899 126.304L233.403 127.216C233.03 126.96 232.63 126.779 232.203 126.672C231.777 126.555 231.35 126.496 230.923 126.496C230.166 126.496 229.606 126.629 229.243 126.896C228.891 127.152 228.715 127.483 228.715 127.888C228.715 128.208 228.811 128.459 229.003 128.64C229.206 128.821 229.467 128.965 229.787 129.072C230.118 129.168 230.475 129.248 230.859 129.312C231.254 129.376 231.643 129.456 232.027 129.552C232.422 129.637 232.779 129.76 233.099 129.92C233.43 130.069 233.691 130.288 233.883 130.576C234.086 130.853 234.187 131.221 234.187 131.68C234.187 132.171 234.049 132.597 233.771 132.96C233.505 133.312 233.11 133.589 232.587 133.792C232.075 133.984 231.451 134.08 230.715 134.08ZM236.272 134V125.6H237.408V134H236.272ZM236.848 123.744C236.613 123.744 236.416 123.664 236.256 123.504C236.096 123.344 236.016 123.152 236.016 122.928C236.016 122.704 236.096 122.517 236.256 122.368C236.416 122.208 236.613 122.128 236.848 122.128C237.082 122.128 237.28 122.203 237.44 122.352C237.6 122.501 237.68 122.688 237.68 122.912C237.68 123.147 237.6 123.344 237.44 123.504C237.29 123.664 237.093 123.744 236.848 123.744ZM244.153 137.184C243.385 137.184 242.649 137.072 241.945 136.848C241.241 136.624 240.67 136.304 240.233 135.888L240.809 135.024C241.203 135.376 241.689 135.653 242.265 135.856C242.851 136.069 243.47 136.176 244.121 136.176C245.187 136.176 245.971 135.925 246.473 135.424C246.974 134.933 247.225 134.165 247.225 133.12V131.024L247.385 129.584L247.273 128.144V125.6H248.361V132.976C248.361 134.427 248.003 135.488 247.289 136.16C246.585 136.843 245.539 137.184 244.153 137.184ZM243.945 133.68C243.145 133.68 242.425 133.509 241.785 133.168C241.145 132.816 240.638 132.331 240.265 131.712C239.902 131.093 239.721 130.384 239.721 129.584C239.721 128.784 239.902 128.08 240.265 127.472C240.638 126.853 241.145 126.373 241.785 126.032C242.425 125.691 243.145 125.52 243.945 125.52C244.691 125.52 245.363 125.675 245.961 125.984C246.558 126.293 247.033 126.752 247.385 127.36C247.737 127.968 247.913 128.709 247.913 129.584C247.913 130.459 247.737 131.2 247.385 131.808C247.033 132.416 246.558 132.88 245.961 133.2C245.363 133.52 244.691 133.68 243.945 133.68ZM244.057 132.672C244.675 132.672 245.225 132.544 245.705 132.288C246.185 132.021 246.563 131.659 246.841 131.2C247.118 130.731 247.257 130.192 247.257 129.584C247.257 128.976 247.118 128.443 246.841 127.984C246.563 127.525 246.185 127.168 245.705 126.912C245.225 126.645 244.675 126.512 244.057 126.512C243.449 126.512 242.899 126.645 242.409 126.912C241.929 127.168 241.55 127.525 241.273 127.984C241.006 128.443 240.873 128.976 240.873 129.584C240.873 130.192 241.006 130.731 241.273 131.2C241.55 131.659 241.929 132.021 242.409 132.288C242.899 132.544 243.449 132.672 244.057 132.672ZM255.81 125.52C256.492 125.52 257.09 125.653 257.602 125.92C258.124 126.176 258.53 126.571 258.818 127.104C259.116 127.637 259.266 128.309 259.266 129.12V134H258.13V129.232C258.13 128.347 257.906 127.68 257.458 127.232C257.02 126.773 256.402 126.544 255.602 126.544C255.004 126.544 254.482 126.667 254.034 126.912C253.596 127.147 253.255 127.493 253.01 127.952C252.775 128.4 252.658 128.944 252.658 129.584V134H251.522V125.6H252.61V127.904L252.434 127.472C252.7 126.864 253.127 126.389 253.714 126.048C254.3 125.696 254.999 125.52 255.81 125.52ZM270.858 134.08C270.132 134.08 269.476 133.915 268.89 133.584C268.303 133.243 267.834 132.757 267.482 132.128C267.14 131.488 266.97 130.709 266.97 129.792C266.97 128.875 267.14 128.101 267.482 127.472C267.823 126.832 268.287 126.347 268.874 126.016C269.46 125.685 270.122 125.52 270.858 125.52C271.658 125.52 272.372 125.701 273.002 126.064C273.642 126.416 274.143 126.917 274.506 127.568C274.868 128.208 275.05 128.949 275.05 129.792C275.05 130.645 274.868 131.392 274.506 132.032C274.143 132.672 273.642 133.173 273.002 133.536C272.372 133.899 271.658 134.08 270.858 134.08ZM266.522 137.104V125.6H267.61V128.128L267.498 129.808L267.658 131.504V137.104H266.522ZM270.778 133.072C271.375 133.072 271.908 132.939 272.378 132.672C272.847 132.395 273.22 132.011 273.498 131.52C273.775 131.019 273.914 130.443 273.914 129.792C273.914 129.141 273.775 128.571 273.498 128.08C273.22 127.589 272.847 127.205 272.378 126.928C271.908 126.651 271.375 126.512 270.778 126.512C270.18 126.512 269.642 126.651 269.162 126.928C268.692 127.205 268.319 127.589 268.042 128.08C267.775 128.571 267.642 129.141 267.642 129.792C267.642 130.443 267.775 131.019 268.042 131.52C268.319 132.011 268.692 132.395 269.162 132.672C269.642 132.939 270.18 133.072 270.778 133.072ZM277.366 134V125.6H278.454V127.888L278.342 127.488C278.576 126.848 278.971 126.363 279.526 126.032C280.08 125.691 280.768 125.52 281.59 125.52V126.624C281.547 126.624 281.504 126.624 281.462 126.624C281.419 126.613 281.376 126.608 281.334 126.608C280.448 126.608 279.755 126.88 279.254 127.424C278.752 127.957 278.502 128.72 278.502 129.712V134H277.366ZM287.008 134.08C286.198 134.08 285.467 133.899 284.816 133.536C284.176 133.163 283.67 132.656 283.296 132.016C282.923 131.365 282.736 130.624 282.736 129.792C282.736 128.949 282.923 128.208 283.296 127.568C283.67 126.928 284.176 126.427 284.816 126.064C285.456 125.701 286.187 125.52 287.008 125.52C287.84 125.52 288.576 125.701 289.216 126.064C289.867 126.427 290.374 126.928 290.736 127.568C291.11 128.208 291.296 128.949 291.296 129.792C291.296 130.624 291.11 131.365 290.736 132.016C290.374 132.656 289.867 133.163 289.216 133.536C288.566 133.899 287.83 134.08 287.008 134.08ZM287.008 133.072C287.616 133.072 288.155 132.939 288.624 132.672C289.094 132.395 289.462 132.011 289.728 131.52C290.006 131.019 290.144 130.443 290.144 129.792C290.144 129.131 290.006 128.555 289.728 128.064C289.462 127.573 289.094 127.195 288.624 126.928C288.155 126.651 287.622 126.512 287.024 126.512C286.427 126.512 285.894 126.651 285.424 126.928C284.955 127.195 284.582 127.573 284.304 128.064C284.027 128.555 283.888 129.131 283.888 129.792C283.888 130.443 284.027 131.019 284.304 131.52C284.582 132.011 284.955 132.395 285.424 132.672C285.894 132.939 286.422 133.072 287.008 133.072ZM296.96 134.08C296.16 134.08 295.44 133.899 294.8 133.536C294.17 133.173 293.674 132.672 293.312 132.032C292.949 131.381 292.768 130.635 292.768 129.792C292.768 128.939 292.949 128.192 293.312 127.552C293.674 126.912 294.17 126.416 294.8 126.064C295.44 125.701 296.16 125.52 296.96 125.52C297.696 125.52 298.352 125.685 298.928 126.016C299.514 126.347 299.978 126.832 300.32 127.472C300.672 128.101 300.848 128.875 300.848 129.792C300.848 130.699 300.677 131.472 300.336 132.112C299.994 132.752 299.53 133.243 298.944 133.584C298.368 133.915 297.706 134.08 296.96 134.08ZM297.04 133.072C297.637 133.072 298.17 132.939 298.64 132.672C299.12 132.395 299.493 132.011 299.76 131.52C300.037 131.019 300.176 130.443 300.176 129.792C300.176 129.131 300.037 128.555 299.76 128.064C299.493 127.573 299.12 127.195 298.64 126.928C298.17 126.651 297.637 126.512 297.04 126.512C296.453 126.512 295.925 126.651 295.456 126.928C294.986 127.195 294.613 127.573 294.336 128.064C294.058 128.555 293.92 129.131 293.92 129.792C293.92 130.443 294.058 131.019 294.336 131.52C294.613 132.011 294.986 132.395 295.456 132.672C295.925 132.939 296.453 133.072 297.04 133.072ZM300.208 134V131.472L300.32 129.776L300.16 128.08V122.128H301.296V134H300.208ZM307.931 134.08C307.217 134.08 306.593 133.947 306.059 133.68C305.526 133.413 305.11 133.013 304.811 132.48C304.523 131.947 304.379 131.28 304.379 130.48V125.6H305.515V130.352C305.515 131.248 305.734 131.925 306.171 132.384C306.619 132.832 307.243 133.056 308.043 133.056C308.63 133.056 309.137 132.939 309.563 132.704C310.001 132.459 310.331 132.107 310.555 131.648C310.79 131.189 310.907 130.64 310.907 130V125.6H312.043V134H310.955V131.696L311.131 132.112C310.865 132.731 310.449 133.216 309.883 133.568C309.329 133.909 308.678 134.08 307.931 134.08ZM318.697 134.08C317.865 134.08 317.119 133.899 316.457 133.536C315.807 133.163 315.295 132.656 314.921 132.016C314.548 131.365 314.361 130.624 314.361 129.792C314.361 128.949 314.548 128.208 314.921 127.568C315.295 126.928 315.807 126.427 316.457 126.064C317.119 125.701 317.865 125.52 318.697 125.52C319.412 125.52 320.057 125.659 320.633 125.936C321.209 126.213 321.663 126.629 321.993 127.184L321.145 127.76C320.857 127.333 320.5 127.019 320.073 126.816C319.647 126.613 319.183 126.512 318.681 126.512C318.084 126.512 317.545 126.651 317.065 126.928C316.585 127.195 316.207 127.573 315.929 128.064C315.652 128.555 315.513 129.131 315.513 129.792C315.513 130.453 315.652 131.029 315.929 131.52C316.207 132.011 316.585 132.395 317.065 132.672C317.545 132.939 318.084 133.072 318.681 133.072C319.183 133.072 319.647 132.971 320.073 132.768C320.5 132.565 320.857 132.256 321.145 131.84L321.993 132.416C321.663 132.96 321.209 133.376 320.633 133.664C320.057 133.941 319.412 134.08 318.697 134.08ZM326.975 134.08C326.185 134.08 325.577 133.867 325.151 133.44C324.724 133.013 324.511 132.411 324.511 131.632V123.744H325.647V131.568C325.647 132.059 325.769 132.437 326.015 132.704C326.271 132.971 326.633 133.104 327.103 133.104C327.604 133.104 328.02 132.96 328.351 132.672L328.751 133.488C328.527 133.691 328.255 133.84 327.935 133.936C327.625 134.032 327.305 134.08 326.975 134.08ZM323.007 126.544V125.6H328.207V126.544H323.007Z" fill="#064061"/>
<path d="M416.592 134V132.912L421.152 128.512C421.557 128.128 421.856 127.792 422.048 127.504C422.251 127.205 422.384 126.933 422.448 126.688C422.523 126.432 422.56 126.187 422.56 125.952C422.56 125.376 422.357 124.923 421.952 124.592C421.547 124.261 420.955 124.096 420.176 124.096C419.579 124.096 419.04 124.197 418.56 124.4C418.08 124.592 417.664 124.896 417.312 125.312L416.224 124.368C416.651 123.824 417.221 123.408 417.936 123.12C418.661 122.821 419.456 122.672 420.32 122.672C421.099 122.672 421.776 122.8 422.352 123.056C422.928 123.301 423.371 123.659 423.68 124.128C424 124.597 424.16 125.152 424.16 125.792C424.16 126.155 424.112 126.512 424.016 126.864C423.92 127.216 423.739 127.589 423.472 127.984C423.205 128.379 422.821 128.821 422.32 129.312L418.256 133.232L417.872 132.608H424.64V134H416.592ZM429.572 134.128C428.782 134.128 428.014 134.005 427.268 133.76C426.532 133.515 425.929 133.184 425.46 132.768L426.196 131.504C426.569 131.856 427.054 132.144 427.652 132.368C428.249 132.592 428.884 132.704 429.556 132.704C430.409 132.704 431.065 132.523 431.524 132.16C431.982 131.797 432.212 131.312 432.212 130.704C432.212 130.288 432.11 129.925 431.908 129.616C431.705 129.307 431.353 129.072 430.852 128.912C430.361 128.741 429.684 128.656 428.82 128.656H426.276L426.868 122.8H433.188V124.192H427.46L428.292 123.408L427.828 128.032L426.996 127.264H429.156C430.276 127.264 431.177 127.408 431.86 127.696C432.542 127.984 433.038 128.384 433.348 128.896C433.657 129.397 433.812 129.979 433.812 130.64C433.812 131.28 433.657 131.867 433.348 132.4C433.038 132.923 432.569 133.344 431.94 133.664C431.321 133.973 430.532 134.128 429.572 134.128ZM436.523 134L444.171 122.8H445.403L437.755 134H436.523ZM437.419 128.816C436.907 128.816 436.453 128.688 436.059 128.432C435.664 128.176 435.355 127.819 435.131 127.36C434.917 126.901 434.811 126.368 434.811 125.76C434.811 125.152 434.917 124.619 435.131 124.16C435.355 123.701 435.664 123.344 436.059 123.088C436.453 122.832 436.907 122.704 437.419 122.704C437.941 122.704 438.395 122.832 438.779 123.088C439.173 123.344 439.477 123.701 439.691 124.16C439.904 124.619 440.011 125.152 440.011 125.76C440.011 126.368 439.904 126.901 439.691 127.36C439.477 127.819 439.173 128.176 438.779 128.432C438.395 128.688 437.941 128.816 437.419 128.816ZM437.419 127.904C437.909 127.904 438.293 127.717 438.571 127.344C438.848 126.96 438.987 126.432 438.987 125.76C438.987 125.088 438.848 124.565 438.571 124.192C438.293 123.808 437.909 123.616 437.419 123.616C436.939 123.616 436.555 123.808 436.267 124.192C435.989 124.565 435.851 125.088 435.851 125.76C435.851 126.421 435.989 126.944 436.267 127.328C436.555 127.712 436.939 127.904 437.419 127.904ZM444.507 134.096C443.995 134.096 443.541 133.968 443.147 133.712C442.752 133.456 442.448 133.099 442.235 132.64C442.021 132.181 441.915 131.648 441.915 131.04C441.915 130.432 442.021 129.899 442.235 129.44C442.448 128.981 442.752 128.624 443.147 128.368C443.541 128.112 443.995 127.984 444.507 127.984C445.029 127.984 445.483 128.112 445.867 128.368C446.261 128.624 446.565 128.981 446.779 129.44C447.003 129.899 447.115 130.432 447.115 131.04C447.115 131.648 447.003 132.181 446.779 132.64C446.565 133.099 446.261 133.456 445.867 133.712C445.483 133.968 445.029 134.096 444.507 134.096ZM444.507 133.184C444.987 133.184 445.365 132.997 445.643 132.624C445.931 132.24 446.075 131.712 446.075 131.04C446.075 130.379 445.931 129.856 445.643 129.472C445.365 129.088 444.987 128.896 444.507 128.896C444.027 128.896 443.643 129.088 443.355 129.472C443.077 129.845 442.939 130.368 442.939 131.04C442.939 131.712 443.077 132.24 443.355 132.624C443.643 132.997 444.027 133.184 444.507 133.184Z" fill="#208CC8"/>
<circle cx="186" cy="160" r="6" fill="#064061"/>
<path d="M205.824 166V154.8H210.016C210.966 154.8 211.782 154.955 212.464 155.264C213.147 155.563 213.67 156 214.032 156.576C214.406 157.141 214.592 157.829 214.592 158.64C214.592 159.429 214.406 160.112 214.032 160.688C213.67 161.253 213.147 161.691 212.464 162C211.782 162.309 210.966 162.464 210.016 162.464H206.48L207.008 161.904V166H205.824ZM207.008 162L206.48 161.424H209.984C211.104 161.424 211.952 161.184 212.528 160.704C213.115 160.213 213.408 159.525 213.408 158.64C213.408 157.744 213.115 157.051 212.528 156.56C211.952 156.069 211.104 155.824 209.984 155.824H206.48L207.008 155.264V162ZM216.709 166V157.6H217.797V159.888L217.685 159.488C217.92 158.848 218.315 158.363 218.869 158.032C219.424 157.691 220.112 157.52 220.933 157.52V158.624C220.891 158.624 220.848 158.624 220.805 158.624C220.763 158.613 220.72 158.608 220.677 158.608C219.792 158.608 219.099 158.88 218.597 159.424C218.096 159.957 217.845 160.72 217.845 161.712V166H216.709ZM226.352 166.08C225.541 166.08 224.811 165.899 224.16 165.536C223.52 165.163 223.013 164.656 222.64 164.016C222.267 163.365 222.08 162.624 222.08 161.792C222.08 160.949 222.267 160.208 222.64 159.568C223.013 158.928 223.52 158.427 224.16 158.064C224.8 157.701 225.531 157.52 226.352 157.52C227.184 157.52 227.92 157.701 228.56 158.064C229.211 158.427 229.717 158.928 230.08 159.568C230.453 160.208 230.64 160.949 230.64 161.792C230.64 162.624 230.453 163.365 230.08 164.016C229.717 164.656 229.211 165.163 228.56 165.536C227.909 165.899 227.173 166.08 226.352 166.08ZM226.352 165.072C226.96 165.072 227.499 164.939 227.968 164.672C228.437 164.395 228.805 164.011 229.072 163.52C229.349 163.019 229.488 162.443 229.488 161.792C229.488 161.131 229.349 160.555 229.072 160.064C228.805 159.573 228.437 159.195 227.968 158.928C227.499 158.651 226.965 158.512 226.368 158.512C225.771 158.512 225.237 158.651 224.768 158.928C224.299 159.195 223.925 159.573 223.648 160.064C223.371 160.555 223.232 161.131 223.232 161.792C223.232 162.443 223.371 163.019 223.648 163.52C223.925 164.011 224.299 164.395 224.768 164.672C225.237 164.939 225.765 165.072 226.352 165.072ZM236.303 166.08C235.503 166.08 234.783 165.899 234.143 165.536C233.514 165.173 233.018 164.672 232.655 164.032C232.293 163.381 232.111 162.635 232.111 161.792C232.111 160.939 232.293 160.192 232.655 159.552C233.018 158.912 233.514 158.416 234.143 158.064C234.783 157.701 235.503 157.52 236.303 157.52C237.039 157.52 237.695 157.685 238.271 158.016C238.858 158.347 239.322 158.832 239.663 159.472C240.015 160.101 240.191 160.875 240.191 161.792C240.191 162.699 240.021 163.472 239.679 164.112C239.338 164.752 238.874 165.243 238.287 165.584C237.711 165.915 237.05 166.08 236.303 166.08ZM236.383 165.072C236.981 165.072 237.514 164.939 237.983 164.672C238.463 164.395 238.837 164.011 239.103 163.52C239.381 163.019 239.519 162.443 239.519 161.792C239.519 161.131 239.381 160.555 239.103 160.064C238.837 159.573 238.463 159.195 237.983 158.928C237.514 158.651 236.981 158.512 236.383 158.512C235.797 158.512 235.269 158.651 234.799 158.928C234.33 159.195 233.957 159.573 233.679 160.064C233.402 160.555 233.263 161.131 233.263 161.792C233.263 162.443 233.402 163.019 233.679 163.52C233.957 164.011 234.33 164.395 234.799 164.672C235.269 164.939 235.797 165.072 236.383 165.072ZM239.551 166V163.472L239.663 161.776L239.503 160.08V154.128H240.639V166H239.551ZM247.275 166.08C246.56 166.08 245.936 165.947 245.403 165.68C244.87 165.413 244.454 165.013 244.155 164.48C243.867 163.947 243.723 163.28 243.723 162.48V157.6H244.859V162.352C244.859 163.248 245.078 163.925 245.515 164.384C245.963 164.832 246.587 165.056 247.387 165.056C247.974 165.056 248.48 164.939 248.907 164.704C249.344 164.459 249.675 164.107 249.899 163.648C250.134 163.189 250.251 162.64 250.251 162V157.6H251.387V166H250.299V163.696L250.475 164.112C250.208 164.731 249.792 165.216 249.227 165.568C248.672 165.909 248.022 166.08 247.275 166.08ZM258.041 166.08C257.209 166.08 256.462 165.899 255.801 165.536C255.15 165.163 254.638 164.656 254.265 164.016C253.892 163.365 253.705 162.624 253.705 161.792C253.705 160.949 253.892 160.208 254.265 159.568C254.638 158.928 255.15 158.427 255.801 158.064C256.462 157.701 257.209 157.52 258.041 157.52C258.756 157.52 259.401 157.659 259.977 157.936C260.553 158.213 261.006 158.629 261.337 159.184L260.489 159.76C260.201 159.333 259.844 159.019 259.417 158.816C258.99 158.613 258.526 158.512 258.025 158.512C257.428 158.512 256.889 158.651 256.409 158.928C255.929 159.195 255.55 159.573 255.273 160.064C254.996 160.555 254.857 161.131 254.857 161.792C254.857 162.453 254.996 163.029 255.273 163.52C255.55 164.011 255.929 164.395 256.409 164.672C256.889 164.939 257.428 165.072 258.025 165.072C258.526 165.072 258.99 164.971 259.417 164.768C259.844 164.565 260.201 164.256 260.489 163.84L261.337 164.416C261.006 164.96 260.553 165.376 259.977 165.664C259.401 165.941 258.756 166.08 258.041 166.08ZM266.318 166.08C265.529 166.08 264.921 165.867 264.494 165.44C264.068 165.013 263.854 164.411 263.854 163.632V155.744H264.99V163.568C264.99 164.059 265.113 164.437 265.358 164.704C265.614 164.971 265.977 165.104 266.446 165.104C266.948 165.104 267.364 164.96 267.694 164.672L268.094 165.488C267.87 165.691 267.598 165.84 267.278 165.936C266.969 166.032 266.649 166.08 266.318 166.08ZM262.35 158.544V157.6H267.55V158.544H262.35ZM274.35 166V157.6H275.438V159.888L275.326 159.488C275.561 158.848 275.955 158.363 276.51 158.032C277.065 157.691 277.753 157.52 278.574 157.52V158.624C278.531 158.624 278.489 158.624 278.446 158.624C278.403 158.613 278.361 158.608 278.318 158.608C277.433 158.608 276.739 158.88 276.238 159.424C275.737 159.957 275.486 160.72 275.486 161.712V166H274.35ZM283.993 166.08C283.182 166.08 282.451 165.899 281.801 165.536C281.161 165.163 280.654 164.656 280.281 164.016C279.907 163.365 279.721 162.624 279.721 161.792C279.721 160.949 279.907 160.208 280.281 159.568C280.654 158.928 281.161 158.427 281.801 158.064C282.441 157.701 283.171 157.52 283.993 157.52C284.825 157.52 285.561 157.701 286.201 158.064C286.851 158.427 287.358 158.928 287.721 159.568C288.094 160.208 288.281 160.949 288.281 161.792C288.281 162.624 288.094 163.365 287.721 164.016C287.358 164.656 286.851 165.163 286.201 165.536C285.55 165.899 284.814 166.08 283.993 166.08ZM283.993 165.072C284.601 165.072 285.139 164.939 285.609 164.672C286.078 164.395 286.446 164.011 286.713 163.52C286.99 163.019 287.129 162.443 287.129 161.792C287.129 161.131 286.99 160.555 286.713 160.064C286.446 159.573 286.078 159.195 285.609 158.928C285.139 158.651 284.606 158.512 284.009 158.512C283.411 158.512 282.878 158.651 282.409 158.928C281.939 159.195 281.566 159.573 281.289 160.064C281.011 160.555 280.873 161.131 280.873 161.792C280.873 162.443 281.011 163.019 281.289 163.52C281.566 164.011 281.939 164.395 282.409 164.672C282.878 164.939 283.406 165.072 283.993 165.072ZM290.43 169.184C290.035 169.184 289.656 169.12 289.294 168.992C288.942 168.864 288.638 168.672 288.382 168.416L288.91 167.568C289.123 167.771 289.352 167.925 289.598 168.032C289.854 168.149 290.136 168.208 290.446 168.208C290.819 168.208 291.139 168.101 291.406 167.888C291.683 167.685 291.944 167.323 292.19 166.8L292.734 165.568L292.862 165.392L296.318 157.6H297.438L293.23 167.008C292.995 167.552 292.734 167.984 292.446 168.304C292.168 168.624 291.864 168.848 291.534 168.976C291.203 169.115 290.835 169.184 290.43 169.184ZM292.67 166.24L288.798 157.6H289.982L293.406 165.312L292.67 166.24ZM304.051 166V164.144L304.003 163.84V160.736C304.003 160.021 303.801 159.472 303.395 159.088C303.001 158.704 302.409 158.512 301.619 158.512C301.075 158.512 300.558 158.603 300.067 158.784C299.577 158.965 299.161 159.205 298.819 159.504L298.307 158.656C298.734 158.293 299.246 158.016 299.843 157.824C300.441 157.621 301.07 157.52 301.731 157.52C302.819 157.52 303.657 157.792 304.243 158.336C304.841 158.869 305.139 159.685 305.139 160.784V166H304.051ZM301.155 166.08C300.526 166.08 299.977 165.979 299.507 165.776C299.049 165.563 298.697 165.275 298.451 164.912C298.206 164.539 298.083 164.112 298.083 163.632C298.083 163.195 298.185 162.8 298.387 162.448C298.601 162.085 298.942 161.797 299.411 161.584C299.891 161.36 300.531 161.248 301.331 161.248H304.227V162.096H301.363C300.553 162.096 299.987 162.24 299.667 162.528C299.358 162.816 299.203 163.173 299.203 163.6C299.203 164.08 299.39 164.464 299.763 164.752C300.137 165.04 300.659 165.184 301.331 165.184C301.971 165.184 302.521 165.04 302.979 164.752C303.449 164.453 303.79 164.027 304.003 163.472L304.259 164.256C304.046 164.811 303.673 165.253 303.139 165.584C302.617 165.915 301.955 166.08 301.155 166.08ZM308.225 166V154.128H309.361V166H308.225ZM315.225 166.08C314.435 166.08 313.827 165.867 313.401 165.44C312.974 165.013 312.761 164.411 312.761 163.632V155.744H313.897V163.568C313.897 164.059 314.019 164.437 314.265 164.704C314.521 164.971 314.883 165.104 315.353 165.104C315.854 165.104 316.27 164.96 316.601 164.672L317.001 165.488C316.777 165.691 316.505 165.84 316.185 165.936C315.875 166.032 315.555 166.08 315.225 166.08ZM311.257 158.544V157.6H316.457V158.544H311.257ZM319.069 166V157.6H320.205V166H319.069ZM319.645 155.744C319.41 155.744 319.213 155.664 319.053 155.504C318.893 155.344 318.813 155.152 318.813 154.928C318.813 154.704 318.893 154.517 319.053 154.368C319.213 154.208 319.41 154.128 319.645 154.128C319.879 154.128 320.077 154.203 320.237 154.352C320.397 154.501 320.477 154.688 320.477 154.912C320.477 155.147 320.397 155.344 320.237 155.504C320.087 155.664 319.89 155.744 319.645 155.744Z" fill="#064061"/>
<path d="M414.592 166V164.912L419.152 160.512C419.557 160.128 419.856 159.792 420.048 159.504C420.251 159.205 420.384 158.933 420.448 158.688C420.523 158.432 420.56 158.187 420.56 157.952C420.56 157.376 420.357 156.923 419.952 156.592C419.547 156.261 418.955 156.096 418.176 156.096C417.579 156.096 417.04 156.197 416.56 156.4C416.08 156.592 415.664 156.896 415.312 157.312L414.224 156.368C414.651 155.824 415.221 155.408 415.936 155.12C416.661 154.821 417.456 154.672 418.32 154.672C419.099 154.672 419.776 154.8 420.352 155.056C420.928 155.301 421.371 155.659 421.68 156.128C422 156.597 422.16 157.152 422.16 157.792C422.16 158.155 422.112 158.512 422.016 158.864C421.92 159.216 421.739 159.589 421.472 159.984C421.205 160.379 420.821 160.821 420.32 161.312L416.256 165.232L415.872 164.608H422.64V166H414.592ZM428.516 166.128C427.641 166.128 426.857 165.904 426.164 165.456C425.481 165.008 424.937 164.357 424.532 163.504C424.137 162.651 423.94 161.616 423.94 160.4C423.94 159.184 424.137 158.149 424.532 157.296C424.937 156.443 425.481 155.792 426.164 155.344C426.857 154.896 427.641 154.672 428.516 154.672C429.38 154.672 430.159 154.896 430.852 155.344C431.545 155.792 432.089 156.443 432.484 157.296C432.879 158.149 433.076 159.184 433.076 160.4C433.076 161.616 432.879 162.651 432.484 163.504C432.089 164.357 431.545 165.008 430.852 165.456C430.159 165.904 429.38 166.128 428.516 166.128ZM428.516 164.704C429.103 164.704 429.615 164.544 430.052 164.224C430.5 163.904 430.847 163.424 431.092 162.784C431.348 162.144 431.476 161.349 431.476 160.4C431.476 159.451 431.348 158.656 431.092 158.016C430.847 157.376 430.5 156.896 430.052 156.576C429.615 156.256 429.103 156.096 428.516 156.096C427.929 156.096 427.412 156.256 426.964 156.576C426.516 156.896 426.164 157.376 425.908 158.016C425.663 158.656 425.54 159.451 425.54 160.4C425.54 161.349 425.663 162.144 425.908 162.784C426.164 163.424 426.516 163.904 426.964 164.224C427.412 164.544 427.929 164.704 428.516 164.704ZM436.148 166L443.796 154.8H445.028L437.38 166H436.148ZM437.044 160.816C436.532 160.816 436.078 160.688 435.684 160.432C435.289 160.176 434.98 159.819 434.756 159.36C434.542 158.901 434.436 158.368 434.436 157.76C434.436 157.152 434.542 156.619 434.756 156.16C434.98 155.701 435.289 155.344 435.684 155.088C436.078 154.832 436.532 154.704 437.044 154.704C437.566 154.704 438.02 154.832 438.404 155.088C438.798 155.344 439.102 155.701 439.316 156.16C439.529 156.619 439.636 157.152 439.636 157.76C439.636 158.368 439.529 158.901 439.316 159.36C439.102 159.819 438.798 160.176 438.404 160.432C438.02 160.688 437.566 160.816 437.044 160.816ZM437.044 159.904C437.534 159.904 437.918 159.717 438.196 159.344C438.473 158.96 438.612 158.432 438.612 157.76C438.612 157.088 438.473 156.565 438.196 156.192C437.918 155.808 437.534 155.616 437.044 155.616C436.564 155.616 436.18 155.808 435.892 156.192C435.614 156.565 435.476 157.088 435.476 157.76C435.476 158.421 435.614 158.944 435.892 159.328C436.18 159.712 436.564 159.904 437.044 159.904ZM444.132 166.096C443.62 166.096 443.166 165.968 442.772 165.712C442.377 165.456 442.073 165.099 441.86 164.64C441.646 164.181 441.54 163.648 441.54 163.04C441.54 162.432 441.646 161.899 441.86 161.44C442.073 160.981 442.377 160.624 442.772 160.368C443.166 160.112 443.62 159.984 444.132 159.984C444.654 159.984 445.108 160.112 445.492 160.368C445.886 160.624 446.19 160.981 446.404 161.44C446.628 161.899 446.74 162.432 446.74 163.04C446.74 163.648 446.628 164.181 446.404 164.64C446.19 165.099 445.886 165.456 445.492 165.712C445.108 165.968 444.654 166.096 444.132 166.096ZM444.132 165.184C444.612 165.184 444.99 164.997 445.268 164.624C445.556 164.24 445.7 163.712 445.7 163.04C445.7 162.379 445.556 161.856 445.268 161.472C444.99 161.088 444.612 160.896 444.132 160.896C443.652 160.896 443.268 161.088 442.98 161.472C442.702 161.845 442.564 162.368 442.564 163.04C442.564 163.712 442.702 164.24 442.98 164.624C443.268 164.997 443.652 165.184 444.132 165.184Z" fill="#208CC8"/>
<circle cx="186" cy="192" r="6" fill="#E2DECD"/>
<path d="M210.72 198.096C209.878 198.096 209.094 197.957 208.368 197.68C207.654 197.392 207.03 196.992 206.496 196.48C205.974 195.957 205.563 195.355 205.264 194.672C204.976 193.979 204.832 193.221 204.832 192.4C204.832 191.579 204.976 190.827 205.264 190.144C205.563 189.451 205.974 188.848 206.496 188.336C207.03 187.813 207.654 187.413 208.368 187.136C209.083 186.848 209.867 186.704 210.72 186.704C211.563 186.704 212.342 186.848 213.056 187.136C213.771 187.413 214.39 187.808 214.912 188.32C215.446 188.832 215.856 189.435 216.144 190.128C216.443 190.821 216.592 191.579 216.592 192.4C216.592 193.221 216.443 193.979 216.144 194.672C215.856 195.365 215.446 195.968 214.912 196.48C214.39 196.992 213.771 197.392 213.056 197.68C212.342 197.957 211.563 198.096 210.72 198.096ZM210.72 197.04C211.392 197.04 212.011 196.928 212.576 196.704C213.152 196.469 213.648 196.144 214.064 195.728C214.491 195.301 214.822 194.811 215.056 194.256C215.291 193.691 215.408 193.072 215.408 192.4C215.408 191.728 215.291 191.115 215.056 190.56C214.822 189.995 214.491 189.504 214.064 189.088C213.648 188.661 213.152 188.336 212.576 188.112C212.011 187.877 211.392 187.76 210.72 187.76C210.048 187.76 209.424 187.877 208.848 188.112C208.272 188.336 207.771 188.661 207.344 189.088C206.928 189.504 206.598 189.995 206.352 190.56C206.118 191.115 206 191.728 206 192.4C206 193.061 206.118 193.675 206.352 194.24C206.598 194.805 206.928 195.301 207.344 195.728C207.771 196.144 208.272 196.469 208.848 196.704C209.424 196.928 210.048 197.04 210.72 197.04ZM221.74 198.08C220.951 198.08 220.343 197.867 219.916 197.44C219.49 197.013 219.276 196.411 219.276 195.632V187.744H220.412V195.568C220.412 196.059 220.535 196.437 220.78 196.704C221.036 196.971 221.399 197.104 221.868 197.104C222.37 197.104 222.786 196.96 223.116 196.672L223.516 197.488C223.292 197.691 223.02 197.84 222.7 197.936C222.391 198.032 222.071 198.08 221.74 198.08ZM217.772 190.544V189.6H222.972V190.544H217.772ZM229.872 189.52C230.555 189.52 231.152 189.653 231.664 189.92C232.187 190.176 232.592 190.571 232.88 191.104C233.179 191.637 233.328 192.309 233.328 193.12V198H232.192V193.232C232.192 192.347 231.968 191.68 231.52 191.232C231.083 190.773 230.464 190.544 229.664 190.544C229.067 190.544 228.544 190.667 228.096 190.912C227.659 191.147 227.318 191.493 227.072 191.952C226.838 192.4 226.72 192.944 226.72 193.584V198H225.584V186.128H226.72V191.904L226.496 191.472C226.763 190.864 227.19 190.389 227.776 190.048C228.363 189.696 229.062 189.52 229.872 189.52ZM239.965 198.08C239.09 198.08 238.322 197.899 237.661 197.536C236.999 197.163 236.482 196.656 236.109 196.016C235.735 195.365 235.549 194.624 235.549 193.792C235.549 192.96 235.725 192.224 236.077 191.584C236.439 190.944 236.93 190.443 237.549 190.08C238.178 189.707 238.882 189.52 239.661 189.52C240.45 189.52 241.149 189.701 241.757 190.064C242.375 190.416 242.861 190.917 243.213 191.568C243.565 192.208 243.741 192.949 243.741 193.792C243.741 193.845 243.735 193.904 243.725 193.968C243.725 194.021 243.725 194.08 243.725 194.144H236.413V193.296H243.117L242.669 193.632C242.669 193.024 242.535 192.485 242.269 192.016C242.013 191.536 241.661 191.163 241.213 190.896C240.765 190.629 240.247 190.496 239.661 190.496C239.085 190.496 238.567 190.629 238.109 190.896C237.65 191.163 237.293 191.536 237.037 192.016C236.781 192.496 236.653 193.045 236.653 193.664V193.84C236.653 194.48 236.791 195.045 237.069 195.536C237.357 196.016 237.751 196.395 238.253 196.672C238.765 196.939 239.346 197.072 239.997 197.072C240.509 197.072 240.983 196.981 241.421 196.8C241.869 196.619 242.253 196.341 242.573 195.968L243.213 196.704C242.839 197.152 242.37 197.493 241.805 197.728C241.25 197.963 240.637 198.08 239.965 198.08ZM246.053 198V189.6H247.141V191.888L247.029 191.488C247.264 190.848 247.658 190.363 248.213 190.032C248.768 189.691 249.456 189.52 250.277 189.52V190.624C250.234 190.624 250.192 190.624 250.149 190.624C250.106 190.613 250.064 190.608 250.021 190.608C249.136 190.608 248.442 190.88 247.941 191.424C247.44 191.957 247.189 192.72 247.189 193.712V198H246.053Z" fill="#064061"/>
<path d="M415.592 198V196.912L420.152 192.512C420.557 192.128 420.856 191.792 421.048 191.504C421.251 191.205 421.384 190.933 421.448 190.688C421.523 190.432 421.56 190.187 421.56 189.952C421.56 189.376 421.357 188.923 420.952 188.592C420.547 188.261 419.955 188.096 419.176 188.096C418.579 188.096 418.04 188.197 417.56 188.4C417.08 188.592 416.664 188.896 416.312 189.312L415.224 188.368C415.651 187.824 416.221 187.408 416.936 187.12C417.661 186.821 418.456 186.672 419.32 186.672C420.099 186.672 420.776 186.8 421.352 187.056C421.928 187.301 422.371 187.659 422.68 188.128C423 188.597 423.16 189.152 423.16 189.792C423.16 190.155 423.112 190.512 423.016 190.864C422.92 191.216 422.739 191.589 422.472 191.984C422.205 192.379 421.821 192.821 421.32 193.312L417.256 197.232L416.872 196.608H423.64V198H415.592ZM424.78 198V196.912L429.34 192.512C429.745 192.128 430.044 191.792 430.236 191.504C430.438 191.205 430.572 190.933 430.636 190.688C430.71 190.432 430.748 190.187 430.748 189.952C430.748 189.376 430.545 188.923 430.14 188.592C429.734 188.261 429.142 188.096 428.364 188.096C427.766 188.096 427.228 188.197 426.748 188.4C426.268 188.592 425.852 188.896 425.5 189.312L424.412 188.368C424.838 187.824 425.409 187.408 426.124 187.12C426.849 186.821 427.644 186.672 428.508 186.672C429.286 186.672 429.964 186.8 430.54 187.056C431.116 187.301 431.558 187.659 431.868 188.128C432.188 188.597 432.348 189.152 432.348 189.792C432.348 190.155 432.3 190.512 432.204 190.864C432.108 191.216 431.926 191.589 431.66 191.984C431.393 192.379 431.009 192.821 430.508 193.312L426.444 197.232L426.06 196.608H432.828V198H424.78ZM435.835 198L443.483 186.8H444.715L437.067 198H435.835ZM436.731 192.816C436.219 192.816 435.766 192.688 435.371 192.432C434.977 192.176 434.667 191.819 434.443 191.36C434.23 190.901 434.123 190.368 434.123 189.76C434.123 189.152 434.23 188.619 434.443 188.16C434.667 187.701 434.977 187.344 435.371 187.088C435.766 186.832 436.219 186.704 436.731 186.704C437.254 186.704 437.707 186.832 438.091 187.088C438.486 187.344 438.79 187.701 439.003 188.16C439.217 188.619 439.323 189.152 439.323 189.76C439.323 190.368 439.217 190.901 439.003 191.36C438.79 191.819 438.486 192.176 438.091 192.432C437.707 192.688 437.254 192.816 436.731 192.816ZM436.731 191.904C437.222 191.904 437.606 191.717 437.883 191.344C438.161 190.96 438.299 190.432 438.299 189.76C438.299 189.088 438.161 188.565 437.883 188.192C437.606 187.808 437.222 187.616 436.731 187.616C436.251 187.616 435.867 187.808 435.579 188.192C435.302 188.565 435.163 189.088 435.163 189.76C435.163 190.421 435.302 190.944 435.579 191.328C435.867 191.712 436.251 191.904 436.731 191.904ZM443.819 198.096C443.307 198.096 442.854 197.968 442.459 197.712C442.065 197.456 441.761 197.099 441.547 196.64C441.334 196.181 441.227 195.648 441.227 195.04C441.227 194.432 441.334 193.899 441.547 193.44C441.761 192.981 442.065 192.624 442.459 192.368C442.854 192.112 443.307 191.984 443.819 191.984C444.342 191.984 444.795 192.112 445.179 192.368C445.574 192.624 445.878 192.981 446.091 193.44C446.315 193.899 446.427 194.432 446.427 195.04C446.427 195.648 446.315 196.181 446.091 196.64C445.878 197.099 445.574 197.456 445.179 197.712C444.795 197.968 444.342 198.096 443.819 198.096ZM443.819 197.184C444.299 197.184 444.678 196.997 444.955 196.624C445.243 196.24 445.387 195.712 445.387 195.04C445.387 194.379 445.243 193.856 444.955 193.472C444.678 193.088 444.299 192.896 443.819 192.896C443.339 192.896 442.955 193.088 442.667 193.472C442.39 193.845 442.251 194.368 442.251 195.04C442.251 195.712 442.39 196.24 442.667 196.624C442.955 196.997 443.339 197.184 443.819 197.184Z" fill="#208CC8"/>
</svg>
